<?xml version="1.0" standalone="no"?>
<!DOCTYPE svg PUBLIC "-//W3C//DTD SVG 20010904//EN"
 "http://www.w3.org/TR/2001/REC-SVG-20010904/DTD/svg10.dtd">
<svg version="1.0" xmlns="http://www.w3.org/2000/svg"
 width="398.000000pt" height="398.000000pt" viewBox="0 0 398.000000 398.000000"
 preserveAspectRatio="xMidYMid meet">
<metadata>
Created by potrace 1.14, written by Peter Selinger 2001-2017
</metadata>
<g transform="translate(0.000000,398.000000) scale(0.100000,-0.100000)"
fill="#000000" stroke="none">
<path d="M2457 3926 c2 -45 -3 -50 -62 -71 -17 -6 -15 -9 15 -20 35 -12 35
-12 10 -20 -14 -5 -28 -8 -32 -7 -5 1 -8 -2 -8 -7 0 -5 13 -11 29 -14 45 -9
60 -31 56 -80 -4 -38 -3 -40 11 -23 12 18 19 15 15 -6 -3 -20 17 -4 34 27 13
25 23 34 34 29 62 -25 90 -22 56 6 -8 7 -15 17 -15 22 0 6 7 8 15 4 20 -7 19
3 -2 26 -13 15 -14 23 -5 44 16 33 15 35 -5 27 -13 -5 -12 0 7 26 l23 33 -23
-7 c-14 -5 -20 -3 -16 3 4 7 -7 6 -30 -1 -29 -9 -38 -8 -44 4 -12 19 -43 57
-35 42 3 -7 1 -13 -4 -13 -6 0 -11 5 -11 10 0 6 -3 10 -7 10 -5 0 -7 -20 -6
-44z"/>
<path d="M2716 3725 c-13 -44 -24 -65 -35 -66 -9 -1 -41 -1 -71 -1 l-55 1 28
-24 c15 -13 27 -27 27 -30 0 -3 -12 -3 -27 1 l-28 5 30 -26 c17 -15 40 -35 52
-45 l22 -19 -19 -50 c-10 -28 -14 -48 -8 -45 7 4 8 -5 3 -26 l-7 -33 23 22
c12 11 27 21 31 21 18 0 -14 -39 -88 -105 -116 -105 -106 -101 -172 -72 -31
14 -75 31 -97 38 -22 7 -44 16 -49 21 -5 4 -39 63 -75 131 -180 336 -175 329
-187 312 -10 -13 -13 -13 -25 5 -13 18 -23 3 -128 -202 -62 -123 -119 -228
-125 -234 -6 -6 -45 -24 -86 -39 -87 -32 -167 -74 -230 -122 -121 -92 -273
-269 -325 -378 -15 -33 -30 -64 -33 -69 -3 -5 0 -6 6 -2 7 4 12 2 12 -3 0 -6
-4 -11 -10 -11 -5 0 -40 -29 -77 -64 -38 -35 -89 -83 -115 -106 -26 -23 -45
-46 -42 -51 3 -5 -5 -9 -18 -9 -18 0 -20 2 -8 10 8 5 12 10 8 10 -4 0 -48 -25
-99 -55 -50 -30 -95 -55 -99 -55 -4 0 -13 -7 -20 -15 -10 -12 -8 -16 11 -23
l23 -9 -23 -12 c-29 -16 -24 -20 69 -69 41 -22 135 -73 209 -114 l134 -75 32
-89 c68 -190 180 -338 355 -470 69 -52 145 -96 152 -88 4 3 16 1 27 -6 26 -14
27 -5 1 27 -22 29 -19 43 5 23 21 -17 19 -1 -3 24 -10 12 -101 136 -202 276
-101 140 -188 261 -193 268 -8 10 -2 20 23 40 34 27 85 48 75 32 -3 -5 33 -85
79 -179 l85 -169 56 -7 c31 -4 58 -5 61 -3 3 3 7 34 9 69 l4 64 -98 150 c-60
91 -103 149 -112 147 -9 -2 -6 4 6 18 23 26 115 94 119 89 2 -2 26 -71 55
-154 29 -82 74 -211 101 -285 27 -74 64 -180 83 -235 121 -342 146 -410 156
-413 6 -2 11 6 11 17 0 12 -4 21 -9 21 -4 0 -11 17 -14 38 -3 20 -8 46 -12 57
-6 16 -5 17 4 5 6 -8 16 -32 21 -52 6 -21 15 -38 20 -38 5 0 7 -7 4 -15 -4 -8
-1 -21 5 -29 6 -7 8 -15 6 -18 -3 -3 4 -8 16 -11 19 -5 20 -4 5 12 -9 10 -14
20 -11 22 2 3 -27 120 -66 260 -39 140 -72 261 -74 269 -1 8 -32 123 -69 255
-36 132 -72 265 -80 295 -8 30 -24 89 -36 130 -12 41 -23 82 -25 90 -2 8 -13
50 -25 93 -12 43 -20 80 -18 82 4 4 330 -151 344 -164 8 -7 12 -91 13 -278 l2
-268 37 -32 c20 -17 39 -27 40 -22 2 6 11 4 19 -3 13 -11 21 -7 50 27 36 42
37 49 18 228 -24 227 -30 307 -26 354 1 7 29 45 64 86 34 40 80 95 102 122 79
95 250 300 268 320 10 11 60 70 110 132 51 61 93 110 94 109 1 -1 -15 -60 -37
-131 -21 -72 -66 -222 -99 -335 -34 -113 -72 -241 -86 -285 -13 -44 -52 -172
-85 -285 -34 -113 -74 -248 -90 -300 -93 -308 -192 -644 -193 -661 -1 -10 -5
-19 -8 -19 -4 0 -6 -12 -3 -26 3 -16 1 -23 -6 -19 -5 3 -10 1 -10 -4 0 -26 28
-8 35 22 4 17 9 34 10 37 1 3 6 16 12 30 6 14 23 62 38 108 15 45 30 81 32 79
2 -2 -12 -54 -31 -115 -18 -61 -28 -109 -22 -105 6 4 3 -3 -6 -14 -22 -24 -23
-33 -4 -33 9 0 23 26 37 68 12 37 91 261 176 497 85 237 160 445 167 464 l12
33 62 -51 c61 -51 72 -63 52 -59 -6 2 -55 -65 -109 -148 -86 -133 -98 -156
-95 -190 1 -21 2 -51 3 -66 1 -22 6 -28 24 -28 13 0 27 -4 32 -9 6 -4 24 -5
40 0 27 7 39 27 113 174 45 91 79 171 76 177 -5 7 -2 8 6 3 7 -4 15 -3 19 3 9
15 83 -37 77 -54 -2 -6 -91 -132 -198 -278 -106 -147 -200 -277 -208 -289
l-15 -22 28 18 c34 22 34 15 0 -31 l-28 -36 38 22 c50 29 56 28 26 -4 l-24
-27 25 13 c215 111 431 368 505 600 l18 55 203 115 c175 98 202 117 188 127
-14 10 -15 15 -4 28 7 8 11 18 8 21 -16 16 -196 116 -210 117 -23 2 -24 17 -2
17 12 0 8 7 -12 22 -16 12 -56 48 -89 79 -108 102 -127 119 -137 119 -5 0 -6
4 -3 10 13 21 -74 169 -159 270 l-47 55 7 60 c3 33 8 69 10 80 10 49 15 159 8
152 -4 -4 -9 -13 -11 -20 -17 -76 -29 -117 -36 -123 -4 -4 -5 8 -2 27 2 19 7
51 9 73 3 21 13 48 23 59 14 17 14 19 1 9 -26 -21 -31 4 -6 29 13 12 18 20 11
18 -6 -2 -42 -33 -80 -69 -37 -36 -75 -70 -83 -75 -26 -16 82 105 134 151 l50
43 45 -37 c27 -22 42 -30 38 -19 -8 21 0 22 19 2 18 -18 38 -20 28 -3 -4 6 -9
26 -10 42 -1 17 -5 47 -8 66 -6 33 -4 37 41 70 41 30 44 35 25 38 -28 4 -28 9
1 33 l22 18 -25 2 c-14 1 -44 3 -68 4 -23 1 -45 4 -48 7 -3 3 -13 34 -23 69
l-18 64 -11 -35 -10 -35 -7 33 c-4 17 -10 32 -14 32 -3 0 -15 -29 -25 -65z
m-56 -459 c-59 -57 -57 -45 4 26 23 27 43 43 45 37 2 -6 -20 -34 -49 -63z
m-896 30 c-5 -14 -53 -40 -61 -33 -3 4 56 46 64 47 1 0 0 -6 -3 -14z m-89
-256 c3 -5 1 -10 -4 -10 -6 0 -11 5 -11 10 0 6 2 10 4 10 3 0 8 -4 11 -10z
m435 -59 c38 -92 -68 -234 -184 -245 -57 -6 -131 36 -170 95 -21 33 -37 87
-27 93 24 15 104 16 152 2 l53 -16 30 28 c47 43 82 62 127 71 4 0 12 -12 19
-28z m-403 -73 c-3 -7 -5 -2 -5 12 0 14 2 19 5 13 2 -7 2 -19 0 -25z m7 -34
c10 -25 -1 -29 -14 -5 -6 12 -7 21 -1 21 5 0 12 -7 15 -16z m1025 -455 c22
-23 41 -45 41 -50 0 -8 16 -10 75 -9 17 0 45 -2 63 -5 28 -5 32 -9 26 -28 -18
-58 -96 -117 -155 -117 -57 0 -120 67 -134 141 -7 37 15 109 33 109 5 0 28
-19 51 -41z m-1385 -10 c10 -52 7 -78 -14 -119 -23 -46 -81 -88 -127 -94 -44
-5 -103 33 -131 82 l-22 40 33 13 c17 8 58 13 89 12 48 -2 58 1 63 17 7 22 73
80 91 80 6 0 14 -14 18 -31z m-310 -94 c3 -8 1 -15 -4 -15 -6 0 -10 7 -10 15
0 8 2 15 4 15 2 0 6 -7 10 -15z"/>
<path d="M2117 1194 c7 -3 9 -12 6 -20 -3 -7 -10 -11 -17 -7 -7 4 -7 1 1 -9 7
-8 11 -18 8 -21 -3 -4 -2 -5 2 -2 4 3 8 11 9 18 1 7 5 20 9 30 5 13 2 17 -11
16 -11 0 -14 -3 -7 -5z"/>
<path d="M1890 1152 c0 -5 7 -17 16 -28 15 -18 15 -18 5 2 -6 12 -7 24 -4 28
3 3 1 6 -5 6 -7 0 -12 -4 -12 -8z"/>
<path d="M2066 1143 c-6 -14 -5 -15 5 -6 7 7 10 15 7 18 -3 3 -9 -2 -12 -12z"/>
<path d="M1223 892 c-31 -20 -49 -122 -22 -122 5 0 9 -37 9 -83 l0 -83 -45 0
-45 1 0 125 0 126 -32 -1 -33 -1 -3 -159 c-2 -130 -5 -162 -19 -177 -18 -20
-54 -23 -84 -7 -18 9 -20 18 -15 84 5 69 4 73 -17 79 -39 10 -45 7 -51 -37
-13 -88 -9 -157 10 -179 34 -36 73 -51 130 -46 60 5 89 25 110 74 12 30 14 30
76 29 35 -1 68 0 75 2 7 3 11 42 11 124 0 65 3 119 7 118 16 -2 22 25 13 60
-5 20 -9 46 -9 59 1 18 -5 22 -27 22 -15 0 -32 -4 -39 -8z"/>
<path d="M1349 763 c-2 -271 -5 -251 34 -249 l32 2 0 169 0 170 -32 1 -33 0
-1 -93z"/>
<path d="M1925 852 c-3 -3 -5 -60 -5 -127 l0 -122 -27 1 -28 1 -5 95 -5 95
-30 0 -30 0 -3 -97 -3 -97 -27 2 c-26 2 -27 0 -27 -43 l0 -45 118 0 c65 0 122
2 128 5 6 4 8 72 7 170 l-3 164 -27 1 c-15 1 -30 0 -33 -3z"/>
<path d="M2059 822 c-1 -39 -1 -252 0 -288 1 -20 12 -23 62 -15 4 1 6 76 5
168 l-1 166 -32 3 c-32 2 -33 1 -34 -34z"/>
<path d="M2615 851 c-2 -4 -3 -81 -3 -172 l1 -166 56 2 c70 2 83 -2 80 -29 -4
-60 -3 -61 61 -61 64 0 67 3 61 68 -3 20 -8 19 129 22 58 1 110 3 116 4 15 1
18 120 4 170 -11 43 -52 70 -101 67 -27 -2 -38 12 -22 27 3 4 8 18 9 32 3 25
-19 45 -49 45 -22 0 -67 -92 -63 -129 6 -51 28 -68 85 -64 51 5 81 -12 81 -45
0 -15 -12 -17 -97 -17 l-97 0 -2 75 c-1 41 -2 78 -3 83 -2 12 -61 8 -62 -5 -1
-7 -2 -44 -3 -83 l-1 -70 -55 0 -55 0 -1 118 c-1 65 -5 121 -8 125 -9 8 -56
11 -61 3z"/>
<path d="M2385 788 c0 -39 2 -42 31 -44 28 -2 32 1 36 24 7 49 -1 62 -36 62
-31 0 -32 -1 -31 -42z"/>
<path d="M1519 755 c-34 -19 -51 -60 -48 -121 4 -84 23 -107 96 -117 47 -7 35
-19 -15 -16 -47 4 -53 2 -58 -17 -3 -12 -4 -33 -2 -45 3 -23 7 -24 71 -24 64
0 71 2 95 30 27 30 27 32 27 175 l0 145 -70 2 c-46 2 -79 -2 -96 -12z m96
-115 c0 -30 -4 -35 -23 -36 -26 -1 -52 20 -52 41 0 18 30 35 55 32 16 -1 20
-9 20 -37z"/>
<path d="M2480 651 c0 -149 -15 -171 -95 -141 -27 10 -27 11 -20 85 3 41 3 75
-2 76 -4 0 -20 3 -35 5 -26 4 -27 2 -34 -53 -15 -118 -10 -144 32 -181 35 -30
43 -33 99 -31 53 2 64 6 93 35 l32 32 0 146 0 146 -35 0 -35 0 0 -119z"/>
<path d="M1341 281 c-6 -10 -7 -21 -4 -25 10 -10 53 -7 53 4 0 6 -8 10 -17 10
-15 0 -14 2 3 15 19 14 18 14 -3 15 -12 0 -27 -8 -32 -19z"/>
<path d="M1044 150 c-1 -50 1 -90 5 -91 3 -1 63 -2 134 -3 l127 -2 0 53 c0 70
-21 85 -102 74 -5 -1 -8 -6 -8 -12 0 -7 12 -10 30 -7 32 5 50 -8 55 -39 4 -31
-12 -49 -42 -47 -15 1 -42 3 -59 3 -31 1 -31 2 -30 53 1 33 -3 53 -11 55 -9 3
-13 -11 -13 -50 0 -50 -2 -55 -25 -59 -13 -3 -27 -3 -30 0 -3 3 -5 41 -5 84 0
56 -4 78 -12 78 -9 0 -13 -25 -14 -90z"/>
<path d="M1350 151 c0 -70 3 -91 14 -91 18 0 17 171 -2 178 -9 3 -12 -19 -12
-87z"/>
<path d="M1754 148 l1 -92 268 -1 267 0 0 41 c0 54 -17 74 -63 77 -41 2 -42 4
-22 31 18 24 19 36 3 36 -17 0 -49 -57 -42 -75 3 -8 23 -15 47 -17 38 -3 42
-6 48 -35 5 -24 3 -33 -7 -34 -56 -3 -125 -1 -130 4 -3 3 -7 26 -8 51 -2 62
-21 64 -22 2 0 -33 -6 -51 -17 -57 -21 -12 -46 13 -40 43 6 31 -15 56 -53 62
-44 8 -65 -11 -66 -61 0 -31 -5 -42 -18 -46 -29 -7 -37 5 -35 53 2 53 -2 65
-19 51 -7 -6 -11 -28 -9 -56 3 -44 3 -45 -27 -45 l-30 0 0 80 c0 59 -3 80 -13
80 -10 0 -13 -22 -13 -92z m258 -33 c4 -37 5 -36 -59 -35 -13 0 -6 72 8 81 22
13 47 -9 51 -46z"/>
<path d="M2658 178 c-1 -35 -1 -77 2 -93 5 -29 7 -30 50 -29 25 1 49 3 53 3 4
1 7 28 5 61 -3 61 -22 80 -24 25 -1 -16 -2 -37 -3 -46 -1 -19 -50 -33 -52 -15
-1 6 -2 42 -3 80 -1 92 -23 102 -28 14z"/>
<path d="M2840 215 c0 -8 6 -15 13 -15 8 0 14 7 14 15 0 8 -6 15 -14 15 -7 0
-13 -7 -13 -15z"/>
<path d="M3042 218 c6 -18 28 -21 28 -4 0 9 -7 16 -16 16 -9 0 -14 -5 -12 -12z"/>
<path d="M2846 182 c-3 -5 -6 -38 -7 -73 -2 -63 -13 -94 -30 -83 -5 3 -9 -2
-9 -10 0 -20 20 -20 46 -2 15 11 19 26 19 68 0 47 2 53 23 56 17 3 22 -2 23
-20 3 -66 -4 -62 96 -63 55 0 94 4 96 10 2 5 3 34 3 64 l-1 55 -43 1 c-54 2
-76 -20 -70 -69 3 -26 0 -36 -13 -39 -29 -8 -38 6 -41 63 -3 50 -4 53 -20 37
-17 -18 -64 -24 -53 -8 3 5 1 12 -4 15 -5 4 -12 2 -15 -2z m234 -63 c0 -35 -3
-39 -25 -39 -41 0 -53 49 -18 77 25 20 43 4 43 -38z"/>
<path d="M918 148 c-13 -13 -18 -29 -15 -44 2 -13 0 -24 -5 -24 -5 0 -8 -5 -6
-12 5 -15 106 -17 119 -2 6 7 -2 11 -27 12 -43 2 -54 8 -54 32 0 23 26 39 53
32 14 -3 18 -1 15 9 -7 20 -58 19 -80 -3z"/>
<path d="M1640 157 c-17 -8 -26 -23 -28 -42 -2 -17 -8 -36 -14 -42 -6 -7 -7
-13 -2 -14 31 -4 101 -4 112 -1 25 8 11 20 -24 20 -20 0 -40 4 -45 9 -13 13 1
53 20 54 9 1 21 2 26 4 6 1 15 3 20 4 12 2 -15 21 -30 21 -5 0 -21 -6 -35 -13z"/>
<path d="M2529 149 c-14 -14 -19 -29 -16 -45 2 -13 0 -24 -4 -24 -5 0 -9 -6
-9 -13 0 -17 112 -17 117 0 3 7 -7 11 -25 11 -37 -1 -52 8 -52 32 0 23 26 39
51 33 23 -6 25 12 3 21 -27 10 -43 7 -65 -15z"/>
<path d="M1476 81 c-3 -5 1 -14 9 -21 8 -7 15 -11 16 -9 6 32 5 39 -6 39 -8 0
-16 -4 -19 -9z"/>
<path d="M2385 80 c-3 -6 1 -13 10 -16 19 -8 30 0 20 15 -8 14 -22 14 -30 1z"/>
<path d="M1110 25 c0 -7 14 -12 30 -13 18 0 30 4 30 12 0 7 -12 13 -30 13 -16
0 -30 -6 -30 -12z"/>
<path d="M1820 25 c0 -7 14 -12 30 -13 18 0 30 4 30 12 0 7 -12 13 -30 13 -16
0 -30 -6 -30 -12z"/>
<path d="M2080 30 c-15 -9 -3 -16 33 -18 19 -1 27 2 24 11 -4 14 -39 18 -57 7z"/>
<path d="M2725 30 c-7 -11 3 -16 38 -18 19 -1 27 2 25 10 -5 15 -55 21 -63 8z"/>
<path d="M2896 25 c8 -19 24 -19 24 0 0 8 -7 15 -15 15 -9 0 -12 -6 -9 -15z"/>
<path d="M2930 26 c0 -9 7 -16 16 -16 17 0 14 22 -4 28 -7 2 -12 -3 -12 -12z"/>
</g>
</svg>
